<?xml version="1.0" encoding="UTF-8" standalone="no"?>
<!DOCTYPE svg PUBLIC "-//W3C//DTD SVG 1.1//EN"
 "http://www.w3.org/Graphics/SVG/1.1/DTD/svg11.dtd">
<!-- Generated by graphviz version 2.36.0 (20140111.2315)
 -->
<!-- Title: abc Pages: 1 -->
<svg width="143pt" height="484pt"
 viewBox="0.00 0.00 143.00 484.00" xmlns="http://www.w3.org/2000/svg" xmlns:xlink="http://www.w3.org/1999/xlink">
<g id="graph0" class="graph" transform="scale(1 1) rotate(0) translate(4 480)">
<title>abc</title>
<polygon fill="white" stroke="none" points="-4,4 -4,-480 139,-480 139,4 -4,4"/>
<!-- a -->
<g id="node1" class="node"><title>a</title>
<polygon fill="none" stroke="black" points="66,-476 0.0577308,-441.5 131.942,-441.5 66,-476"/>
<text text-anchor="middle" x="66" y="-449.3" font-family="Times,serif" font-size="14.00">节点a</text>
</g>
<!-- b -->
<g id="node2" class="node"><title>b</title>
<ellipse fill="none" stroke="green" cx="66" cy="-344" rx="33.1991" ry="33.5952"/>
<text text-anchor="middle" x="66" y="-340.3" font-family="Times,serif" font-size="14.00">节点b</text>
</g>
<!-- a&#45;&gt;b -->
<g id="edge1" class="edge"><title>a&#45;&gt;b</title>
<path fill="none" stroke="black" stroke-dasharray="5,2" d="M66,-441.349C66,-428.982 66,-407.8 66,-388.441"/>
<polygon fill="black" stroke="black" points="69.5001,-388.241 66,-378.242 62.5001,-388.242 69.5001,-388.241"/>
<text text-anchor="middle" x="80" y="-400.3" font-family="Times,serif" font-size="14.00">边ab</text>
</g>
<!-- d -->
<g id="node4" class="node"><title>d</title>
<ellipse fill="none" stroke="black" cx="93" cy="-240" rx="33.1991" ry="18"/>
<text text-anchor="middle" x="93" y="-236.3" font-family="Times,serif" font-size="14.00">节点d</text>
</g>
<!-- b&#45;&gt;d -->
<g id="edge2" class="edge"><title>b&#45;&gt;d</title>
<path fill="none" stroke="green" stroke-dasharray="1,5" d="M64.5913,-309.983C65.0023,-298.945 66.439,-286.727 70,-276 71.1926,-272.407 72.8514,-268.828 74.7374,-265.406"/>
<polygon fill="green" stroke="green" points="77.7753,-267.149 80.0964,-256.812 71.8354,-263.445 77.7753,-267.149"/>
<text text-anchor="middle" x="84" y="-280.3" font-family="Times,serif" font-size="14.00">边bd</text>
</g>
<!-- c -->
<g id="node3" class="node"><title>c</title>
<ellipse fill="black" stroke="black" cx="120" cy="-344" rx="1.8" ry="1.8"/>
</g>
<!-- c&#45;&gt;d -->
<g id="edge3" class="edge"><title>c&#45;&gt;d</title>
<path fill="none" stroke="black" d="M119.697,-341.854C117.796,-334.674 107.369,-295.283 100.124,-267.911"/>
<polygon fill="black" stroke="black" points="103.469,-266.873 97.5268,-258.101 96.7023,-268.664 103.469,-266.873"/>
<text text-anchor="middle" x="121" y="-280.3" font-family="Times,serif" font-size="14.00">边ab</text>
</g>
<!-- x -->
<g id="node5" class="node"><title>x</title>
<ellipse fill="none" stroke="black" cx="93" cy="-166" rx="27" ry="18"/>
<text text-anchor="middle" x="93" y="-162.3" font-family="Times,serif" font-size="14.00">x</text>
</g>
<!-- d&#45;&gt;x -->
<g id="edge4" class="edge"><title>d&#45;&gt;x</title>
<path fill="none" stroke="black" d="M93,-221.937C93,-213.807 93,-203.876 93,-194.705"/>
<polygon fill="black" stroke="black" points="96.5001,-194.441 93,-184.441 89.5001,-194.441 96.5001,-194.441"/>
</g>
<!-- y -->
<g id="node6" class="node"><title>y</title>
<ellipse fill="none" stroke="black" cx="93" cy="-92" rx="27" ry="18"/>
<text text-anchor="middle" x="93" y="-88.3" font-family="Times,serif" font-size="14.00">y</text>
</g>
<!-- x&#45;&gt;y -->
<g id="edge5" class="edge"><title>x&#45;&gt;y</title>
<path fill="none" stroke="black" d="M93,-147.937C93,-139.807 93,-129.876 93,-120.705"/>
<polygon fill="black" stroke="black" points="96.5001,-120.441 93,-110.441 89.5001,-120.441 96.5001,-120.441"/>
</g>
<!-- z -->
<g id="node7" class="node"><title>z</title>
<ellipse fill="none" stroke="black" cx="93" cy="-18" rx="27" ry="18"/>
<text text-anchor="middle" x="93" y="-14.3" font-family="Times,serif" font-size="14.00">z</text>
</g>
<!-- y&#45;&gt;z -->
<g id="edge6" class="edge"><title>y&#45;&gt;z</title>
<path fill="none" stroke="black" d="M93,-73.937C93,-65.8072 93,-55.8761 93,-46.7047"/>
<polygon fill="black" stroke="black" points="96.5001,-46.4406 93,-36.4407 89.5001,-46.4407 96.5001,-46.4406"/>
</g>
</g>
</svg>
